<svg xmlns="http://www.w3.org/2000/svg" width="565" height="170" viewBox="0 0 565 170"><g><g><g><path fill="#511384" d="M46.97 122.658a5.722 5.722 0 0 1-2.521-.586 5.754 5.754 0 0 1-2.645-7.698l38.995-79.82a5.756 5.756 0 0 1 10.344 0l38.995 79.82a5.755 5.755 0 1 1-10.343 5.053L85.97 50.194l-33.824 69.233a5.755 5.755 0 0 1-5.176 3.23z"/></g><g><path fill="#005891" d="M160.391 82.335h10.602C169.604 37.464 133.301 1.235 88.4-.031V10.57c39.06 1.258 70.612 32.736 71.992 71.764z"/></g><g><path fill="#511384" d="M160.41 87.192c-1.142 39.247-32.794 70.974-72.01 72.237v10.602c45.06-1.27 81.464-37.749 82.61-82.839z"/></g><g><path fill="#001f59" d="M11.533 87.192H.93c1.147 45.09 37.552 81.568 82.61 82.839v-10.602c-39.216-1.263-70.867-32.99-72.008-72.237z"/></g><g><path fill="#00a6d6" d="M11.55 82.335C12.93 43.307 44.483 11.83 83.541 10.57V-.031C38.641 1.235 2.337 37.464.95 82.335z"/></g><g><path fill="#00a6d6" d="M208.11 102.254a791.316 791.316 0 0 0-4.445 14.323h-11.36c5.351-17.122 13.747-40.254 20.744-57.376h17.04c5.845 18.439 14.242 42.065 20.663 57.376h-12.019c-1.646-4.115-3.622-9.055-5.516-14.323zm11.772-33.833c-2.881 7.408-5.927 15.887-8.891 24.531h19.098c-2.963-8.479-5.762-17.123-7.984-24.531zm94.43-9.22v57.376h-10.619V73.854c-5.187 11.442-11.361 26.178-15.971 37.455h-8.479c-4.445-11.277-10.372-26.425-15.393-37.455v42.723h-10.454V59.201h14.817c5.433 11.195 11.359 24.778 16.134 36.714 4.528-12.018 10.537-25.683 15.888-36.714zm50.453.741l-2.387 9.548c-2.964-1.069-8.313-1.81-12.183-1.81-12.512 0-17.205 2.14-17.205 19.756s4.693 20.332 17.205 20.332c3.87 0 9.219-.74 12.183-1.81l2.387 9.714c-4.445 1.234-11.195 2.058-16.463 2.058-18.192 0-26.918-6.998-26.918-30.376 0-23.461 8.726-29.552 26.918-29.552 5.268 0 12.018.905 16.463 2.14zm30.219 57.788c-18.276 0-27.331-6.668-27.331-30.376 0-23.296 9.138-29.552 27.331-29.552 18.192 0 27.247 6.256 27.247 29.552 0 23.708-9.055 30.376-27.247 30.376zm0-50.133c-12.596 0-15.723 2.553-15.723 19.922 0 17.287 3.127 20.414 15.723 20.414 12.594 0 15.722-3.127 15.722-20.414 0-17.369-3.128-19.922-15.722-19.922zm95.282-8.396v57.376h-10.62V73.854c-5.186 11.442-11.36 26.178-15.97 37.455h-8.479c-4.445-11.277-10.372-26.425-15.393-37.455v42.723h-10.455V59.201h14.817c5.434 11.195 11.361 24.778 16.135 36.714 4.527-12.018 10.536-25.683 15.888-36.714zm44.66 57.376c-8.974-15.723-14.324-21.897-18.028-21.897h-7.656v21.897h-10.866V59.201h29.882c12.101 0 15.97 7.491 15.97 16.711 0 8.232-3.621 15.311-15.064 15.722 3.95 1.4 9.137 8.15 19.18 24.943zm-25.684-30.87h16.217c4.199 0 6.667-2.799 6.667-8.396 0-6.009-2.387-8.89-6.42-8.89h-16.464zm54.9 30.87h-10.866V59.202h10.866z"/></g><g><path fill="#001f59" d="M324.34 134.98l-1.444 1.043c-1.58-1.884-4.135-3.127-6.992-3.127-5.278 0-9.346 4-9.346 9.848 0 5.783 4.068 9.884 9.346 9.884 2.99 0 5.344-1.48 6.589-2.722v-5.345h-8.505v-1.748h10.42v7.832c-2.016 2.219-4.974 3.732-8.504 3.732-6.321 0-11.363-4.707-11.363-11.633 0-6.925 5.042-11.597 11.363-11.597 3.697 0 6.387 1.478 8.437 3.833zm13.884 9.68h-4.941v9.28h-1.916v-22.423h8.37c3.866 0 6.824 2.455 6.824 6.554 0 4.068-2.892 6.32-6.22 6.454l6.49 9.415h-2.321zm1.345-11.395h-6.286v9.648h6.286c2.959 0 4.975-2.016 4.975-4.842 0-2.823-2.016-4.806-4.975-4.806zm40.533-1.748h1.95V145.3c0 4.538 2.387 7.295 6.79 7.295 4.404 0 6.79-2.757 6.79-7.295v-13.783h1.95v13.817c0 5.546-2.96 9.009-8.74 9.009-5.75 0-8.74-3.497-8.74-9.01zm25.144 0h8.405c4.303 0 6.756 3.025 6.756 6.554 0 3.53-2.488 6.557-6.756 6.557h-6.49v9.312h-1.915zm8.202 1.748h-6.286v9.614h6.286c2.959 0 4.942-1.982 4.942-4.808 0-2.823-1.983-4.806-4.942-4.806zm23.867-1.748h1.916v20.674h10.858v1.748h-12.774zm19.025 0h1.916v22.423h-1.916zm28.608 2.52l-8.17 19.903h-.74l-8.201-19.902v19.902h-1.917v-22.423h2.857l7.632 18.59 7.596-18.59h2.892v22.423h-1.95zm9.579-2.52h1.916v22.423h-1.916zm15.295 1.748h-7.328v-1.748h16.605v1.748h-7.328v20.675h-1.95zm15.327-1.748h14.22v1.748h-12.303v8.303h12.067v1.748h-12.067v8.875h12.303v1.748h-14.22zm21.044 0h7.16c6.958 0 11.329 5.076 11.329 11.227 0 6.22-4.371 11.196-11.33 11.196h-7.16zm7.16 20.674c5.917 0 9.31-4.203 9.31-9.447 0-5.243-3.361-9.48-9.31-9.48h-5.244v18.927zm-190.376-21.066c6.572 0 10.92 5.056 10.92 11.628 0 6.573-4.348 11.628-10.92 11.628-6.605 0-10.92-5.055-10.92-11.628 0-6.572 4.315-11.628 10.92-11.628zm0 1.753c-5.46 0-8.897 4.18-8.897 9.875 0 5.663 3.437 9.875 8.897 9.875 5.393 0 8.897-4.212 8.897-9.875 0-5.695-3.504-9.875-8.897-9.875z"/></g></g></g></svg>