<svg xmlns="http://www.w3.org/2000/svg" width="30" height="30" viewBox="0 0 30 30"><g><g clip-path="url(#clip-532B4947-292E-4BC6-97CC-222140804CF0)"><path fill="#fff" d="M4.393 4.393c5.858-5.857 15.356-5.857 21.214 0 5.857 5.858 5.857 15.356 0 21.214-5.858 5.857-15.356 5.857-21.214 0-5.857-5.858-5.857-15.356 0-21.214zm19.092 19.092c4.679-4.678 4.679-12.292 0-16.97-4.678-4.679-12.292-4.679-16.97 0-4.679 4.678-4.679 12.292 0 16.97 4.678 4.679 12.292 4.679 16.97 0zM15 12.88l3.182-3.182 2.121 2.121L17.121 15l3.182 3.182-2.121 2.121L15 17.121l-3.182 3.182-2.121-2.121L12.879 15l-3.182-3.182 2.121-2.121z"/></g></g></svg>