<svg xmlns="http://www.w3.org/2000/svg" width="41" height="32" viewBox="0 0 41 32"><g><g><path fill="#fff" d="M12.895 32c15.47 0 23.933-12.313 23.933-22.99 0-.35 0-.698-.024-1.045A16.729 16.729 0 0 0 41 3.783a17.294 17.294 0 0 1-4.83 1.272c1.755-1.01 3.069-2.597 3.698-4.47a17.285 17.285 0 0 1-5.342 1.961c-3.186-3.253-8.514-3.41-11.902-.35-2.183 1.973-3.112 4.915-2.434 7.72-6.763-.326-13.064-3.394-17.336-8.44C.62 5.166 1.763 9.888 5.459 12.26a8.613 8.613 0 0 1-3.819-1.01v.102c.002 3.846 2.825 7.158 6.749 7.92a8.702 8.702 0 0 1-3.797.138c1.1 3.292 4.26 5.547 7.858 5.612-2.979 2.248-6.659 3.47-10.447 3.465A17.945 17.945 0 0 1 0 28.371a24.54 24.54 0 0 0 12.895 3.623"/></g></g></svg>